<svg xmlns="http://www.w3.org/2000/svg" viewBox="0 0 493.12 165.77"><defs><style>.cls-1{fill:#090909;}.cls-2{fill:#fff;}</style></defs><title>Asset 2</title><g id="Layer_2" data-name="Layer 2"><g id="Layer_1-2" data-name="Layer 1"><rect class="cls-1" width="493.12" height="165.77"/><g id="logo"><g id="DOTOCA"><polygon class="cls-2" points="456 12.2 423.48 12.2 415.17 64.12 434.6 64.12 438.63 37.24 449.33 108.74 427.92 108.74 429.98 95.01 410.23 95.01 400.86 153.57 421.26 153.57 425.1 127.92 452.36 127.92 456.2 153.57 478.62 153.57 456 12.2"/><path class="cls-2" d="M60.55,95v24.63c0,10.1-4.24,13.74-11.31,13.74H36.72v-101H49.24c7.07,0,11.31,3.64,11.31,13.74v18H82.76v-17c0-22.62-10.9-34.94-33.12-34.94H14.5V153.57H49.64c22.22,0,33.12-12.32,33.12-34.94V95Z"/><path class="cls-2" d="M117.3,64.12V44.71c0-10.1,4.44-13.93,11.51-13.93s11.51,3.83,11.51,13.93V64.12h22.22v-18c0-22.62-11.92-35.55-33.73-35.55S95.08,23.51,95.08,46.13v18Z"/><path class="cls-2" d="M140.32,95v26c0,10.1-4.44,13.94-11.51,13.94s-11.51-3.84-11.51-13.94V95H95.08v24.63c0,22.62,11.92,35.55,33.73,35.55s33.73-12.93,33.73-35.55V95Z"/><polygon class="cls-2" points="193.64 64.12 215.86 64.12 215.86 32.39 239.09 32.39 239.09 12.2 170.42 12.2 170.42 32.39 193.64 32.39 193.64 64.12"/><rect class="cls-2" x="193.64" y="95.01" width="22.22" height="58.56"/><path class="cls-2" d="M269.18,64.12V44.71c0-10.1,4.44-13.93,11.51-13.93s11.51,3.83,11.51,13.93V64.12h22.22v-18c0-22.62-11.92-35.55-33.73-35.55S247,23.51,247,46.13v18Z"/><path class="cls-2" d="M292.2,95v26c0,10.1-4.44,13.94-11.51,13.94s-11.51-3.84-11.51-13.94V95H247v24.63c0,22.62,11.92,35.55,33.73,35.55s33.73-12.93,33.73-35.55V95Z"/><path class="cls-2" d="M349.16,64.12V44.71c0-10.1,4.44-13.93,11.51-13.93s11.51,3.83,11.51,13.93v5.85h21V46.13c0-22.62-11.32-35.55-33.13-35.55s-33.12,12.93-33.12,35.55v18Z"/><path class="cls-2" d="M372.18,121.05c0,10.1-4.44,13.74-11.51,13.74s-11.51-3.64-11.51-13.74V95H326.94v24.63c0,22.62,11.31,35.55,33.12,35.55s33.13-12.93,33.13-35.55V108.49h-21Z"/></g><g id="OCA"><path class="cls-2" d="M67.19,66.4c4.23,0,6.55,2.26,6.55,6.22V85.49c0,4-2.32,6.22-6.55,6.22s-6.55-2.26-6.55-6.22V72.62C60.64,68.66,63,66.4,67.19,66.4Zm0,21.78c1.37,0,2.24-.67,2.24-2.44V72.38c0-1.77-.87-2.44-2.24-2.44S65,70.61,65,72.38V85.74C65,87.51,65.82,88.18,67.19,88.18Z"/><path class="cls-2" d="M88.59,66.68h6V91.43H90.51V73.68l-3,17.75H83.46l-3.22-17.5v17.5H76.48V66.68h6l3.17,17.58Z"/><path class="cls-2" d="M101.56,91.43H97.68V66.68h5.41l4.43,14.82V66.68h3.84V91.43h-4.43l-5.37-17.92Z"/><path class="cls-2" d="M118.77,66.68V91.43h-4.31V66.68Z"/><path class="cls-2" d="M140.49,85.49c0,4-2.2,6.22-6.43,6.22s-6.43-2.26-6.43-6.22V72.62c0-4,2.19-6.22,6.43-6.22s6.43,2.26,6.43,6.22V75h-4.08V72.38c0-1.77-.86-2.44-2.23-2.44s-2.24.67-2.24,2.44V85.74c0,1.77.86,2.4,2.24,2.4s2.23-.63,2.23-2.4V82.2h4.08Z"/><path class="cls-2" d="M149.3,66.4c4.24,0,6.55,2.26,6.55,6.22V85.49c0,4-2.31,6.22-6.55,6.22s-6.54-2.26-6.54-6.22V72.62C142.76,68.66,145.07,66.4,149.3,66.4Zm0,21.78c1.38,0,2.24-.67,2.24-2.44V72.38c0-1.77-.86-2.44-2.24-2.44s-2.23.67-2.23,2.44V85.74C147.07,87.51,147.93,88.18,149.3,88.18Z"/><path class="cls-2" d="M162.47,91.43h-3.88V66.68H164l4.43,14.82V66.68h3.84V91.43h-4.43l-5.37-17.92Z"/><path class="cls-2" d="M181.17,66.4c4.19,0,6.35,2.26,6.35,6.22v.78h-4.08v-1c0-1.77-.78-2.44-2.15-2.44s-2.16.67-2.16,2.44c0,5.09,8.43,6,8.43,13.11,0,4-2.2,6.22-6.43,6.22s-6.43-2.26-6.43-6.22V84h4.08v1.77c0,1.77.86,2.4,2.23,2.4s2.24-.63,2.24-2.4c0-5.09-8.43-6-8.43-13.12C174.82,68.66,177,66.4,181.17,66.4Z"/><path class="cls-2" d="M194.14,85.78c0,1.76.87,2.4,2.24,2.4s2.23-.64,2.23-2.4V66.68h4.08V85.53c0,4-2.2,6.22-6.43,6.22s-6.43-2.26-6.43-6.22V66.68h4.31Z"/><path class="cls-2" d="M217.7,66.68h6V91.43h-4.08V73.68l-3,17.75h-4.07l-3.22-17.5v17.5h-3.76V66.68h6l3.17,17.58Z"/><path class="cls-2" d="M231.14,66.68V91.43h-4.31V66.68Z"/><path class="cls-2" d="M246.78,85.49c0,4-2.19,6.22-6.43,6.22s-6.42-2.26-6.42-6.22V72.62c0-4,2.19-6.22,6.42-6.22s6.43,2.26,6.43,6.22V75h-4.07V72.38c0-1.77-.87-2.44-2.24-2.44s-2.23.67-2.23,2.44V85.74c0,1.77.86,2.4,2.23,2.4s2.24-.63,2.24-2.4V82.2h4.07Z"/><path class="cls-2" d="M259,91.43l-.74-4.49H253l-.74,4.49h-4l4.39-24.75H259l4.39,24.75Zm-1.33-7.85L255.6,71.07l-2.08,12.51Z"/><path class="cls-2" d="M269.67,66.68V87.9h7.1v3.53H265.36V66.68Z"/><path class="cls-2" d="M294.33,91.43l-.75-4.49h-5.29l-.75,4.49h-4L288,66.68h6.31l4.39,24.75ZM293,83.58l-2.07-12.51-2.08,12.51Z"/><path class="cls-2" d="M305,66.68V87.9h7.09v3.53H300.67V66.68Z"/><path class="cls-2" d="M326.47,77.64v7.85c0,4-2.2,6.22-6.43,6.22s-6.43-2.26-6.43-6.22V72.62c0-4,2.19-6.22,6.43-6.22s6.43,2.26,6.43,6.22V75h-4.08V72.38c0-1.77-.86-2.44-2.23-2.44s-2.24.67-2.24,2.44V85.74c0,1.77.86,2.4,2.24,2.4s2.23-.63,2.23-2.4V81.18h-2V77.64Z"/><path class="cls-2" d="M335.44,66.4c4.23,0,6.55,2.26,6.55,6.22V85.49c0,4-2.32,6.22-6.55,6.22s-6.55-2.26-6.55-6.22V72.62C328.89,68.66,331.21,66.4,335.44,66.4Zm0,21.78c1.37,0,2.24-.67,2.24-2.44V72.38c0-1.77-.87-2.44-2.24-2.44s-2.23.67-2.23,2.44V85.74C333.21,87.51,334.07,88.18,335.44,88.18Z"/><path class="cls-2" d="M353.39,88.39V84.5c0-2.3-.86-3.14-2.82-3.14h-1.49V91.43h-4.31V66.68h6.51c4.46,0,6.39,1.88,6.39,5.7v1.94c0,2.55-.91,4.21-2.83,5,2.16.81,2.86,2.69,2.86,5.27v3.82a6.5,6.5,0,0,0,.48,3h-4.4A7,7,0,0,1,353.39,88.39Zm-4.31-10.57h1.69c1.6,0,2.58-.64,2.58-2.62V72.76c0-1.76-.66-2.54-2.19-2.54h-2.08Z"/><path class="cls-2" d="M364.84,66.68V91.43h-4.31V66.68Z"/><path class="cls-2" d="M380.05,66.68v3.54h-4.51V91.43h-4.31V70.22h-4.51V66.68Z"/><path class="cls-2" d="M381.93,91.43V66.68h4.31V77.29h4.9V66.68h4.39V91.43h-4.39V80.83h-4.9v10.6Z"/><path class="cls-2" d="M410.74,66.68h6V91.43h-4.07V73.68l-3,17.75H405.6l-3.21-17.5v17.5h-3.77V66.68h6l3.17,17.58Z"/><path class="cls-2" d="M425.67,66.4c4.19,0,6.35,2.26,6.35,6.22v.78h-4.08v-1c0-1.77-.78-2.44-2.15-2.44s-2.16.67-2.16,2.44c0,5.09,8.43,6,8.43,13.11,0,4-2.2,6.22-6.43,6.22s-6.43-2.26-6.43-6.22V84h4.08v1.77c0,1.77.86,2.4,2.23,2.4s2.24-.63,2.24-2.4c0-5.09-8.43-6-8.43-13.12C419.32,68.66,421.47,66.4,425.67,66.4Z"/></g></g></g></g></svg>